<svg width="63" height="63" viewBox="0 0 63 63" fill="none" xmlns="http://www.w3.org/2000/svg">
<path fill-rule="evenodd" clip-rule="evenodd" d="M31.5 0.5C14.3792 0.5 0.5 14.3792 0.5 31.5C0.5 48.6208 14.3792 62.5 31.5 62.5C48.6208 62.5 62.5 48.6208 62.5 31.5C62.5 14.3792 48.6208 0.5 31.5 0.5ZM24.6845 15.0666C26.4481 14.9863 27.0116 14.9667 31.5018 14.9667H31.4966C35.9882 14.9667 36.5497 14.9863 38.3133 15.0666C40.0734 15.1472 41.2755 15.4258 42.3295 15.8347C43.418 16.2566 44.3377 16.8215 45.2573 17.7412C46.177 18.6602 46.7419 19.5826 47.1656 20.6701C47.572 21.7213 47.851 22.9227 47.9337 24.6829C48.0129 26.4464 48.0336 27.01 48.0336 31.5002C48.0336 35.9904 48.0129 36.5526 47.9337 38.3161C47.851 40.0756 47.572 41.2773 47.1656 42.3289C46.7419 43.416 46.177 44.3385 45.2573 45.2574C44.3387 46.1771 43.4176 46.7434 42.3306 47.1657C41.2786 47.5745 40.0758 47.8532 38.3157 47.9338C36.5521 48.0141 35.9903 48.0337 31.4997 48.0337C27.0099 48.0337 26.4467 48.0141 24.6831 47.9338C22.9233 47.8532 21.7215 47.5745 20.6696 47.1657C19.5829 46.7434 18.6604 46.1771 17.7418 45.2574C16.8225 44.3385 16.2576 43.416 15.8349 42.3286C15.4264 41.2773 15.1478 40.0759 15.0668 38.3158C14.9869 36.5522 14.9669 35.9904 14.9669 31.5002C14.9669 27.01 14.9876 26.4461 15.0665 24.6825C15.1457 22.9231 15.4247 21.7213 15.8346 20.6697C16.2583 19.5826 16.8231 18.6602 17.7428 17.7412C18.6618 16.8219 19.5842 16.257 20.6717 15.8347C21.7229 15.4258 22.9244 15.1472 24.6845 15.0666Z" fill="#2B2A29"/>
<path fill-rule="evenodd" clip-rule="evenodd" d="M30.0186 17.9462C30.3066 17.9457 30.6164 17.9458 30.9507 17.946L31.5018 17.9462C35.9162 17.9462 36.4394 17.962 38.1827 18.0412C39.7947 18.1149 40.6696 18.3843 41.2524 18.6106C42.024 18.9103 42.5741 19.2685 43.1524 19.8472C43.7311 20.4258 44.0893 20.9769 44.3897 21.7485C44.616 22.3306 44.8857 23.2055 44.959 24.8175C45.0382 26.5605 45.0555 27.084 45.0555 31.4964C45.0555 35.9088 45.0382 36.4323 44.959 38.1752C44.8853 39.7873 44.616 40.6622 44.3897 41.2443C44.09 42.0158 43.7311 42.5652 43.1524 43.1436C42.5737 43.7222 42.0243 44.0805 41.2524 44.3801C40.6703 44.6075 39.7947 44.8761 38.1827 44.9498C36.4398 45.0291 35.9162 45.0463 31.5018 45.0463C27.087 45.0463 26.5638 45.0291 24.8209 44.9498C23.2089 44.8754 22.334 44.6061 21.7508 44.3798C20.9792 44.0801 20.4281 43.7219 19.8495 43.1432C19.2708 42.5645 18.9126 42.0148 18.6122 41.2429C18.3859 40.6608 18.1162 39.7859 18.0428 38.1739C17.9636 36.431 17.9478 35.9074 17.9478 31.4923C17.9478 27.0771 17.9636 26.5563 18.0428 24.8134C18.1165 23.2014 18.3859 22.3265 18.6122 21.7437C18.9119 20.9721 19.2708 20.421 19.8495 19.8423C20.4281 19.2637 20.9792 18.9054 21.7508 18.6051C22.3336 18.3777 23.2089 18.1091 24.8209 18.035C26.3461 17.9661 26.9372 17.9455 30.0186 17.942V17.9462ZM40.3271 20.6914C39.2317 20.6914 38.3431 21.5791 38.3431 22.6747C38.3431 23.7701 39.2317 24.6588 40.3271 24.6588C41.4224 24.6588 42.3111 23.7701 42.3111 22.6747C42.3111 21.5794 41.4224 20.6907 40.3271 20.6907V20.6914ZM23.0108 31.5001C23.0108 26.8112 26.8125 23.0095 31.5015 23.0095H31.5011C36.1901 23.0095 39.9907 26.8112 39.9907 31.5001C39.9907 36.1891 36.1904 39.989 31.5015 39.989C26.8125 39.989 23.0108 36.1891 23.0108 31.5001Z" fill="#2B2A29"/>
<path d="M31.5014 25.989C34.5449 25.989 37.0126 28.4563 37.0126 31.5002C37.0126 34.5437 34.5449 37.0114 31.5014 37.0114C28.4575 37.0114 25.9902 34.5437 25.9902 31.5002C25.9902 28.4563 28.4575 25.989 31.5014 25.989V25.989Z" fill="#2B2A29"/>
</svg>
