<svg width="63" height="63" viewBox="0 0 63 63" fill="none" xmlns="http://www.w3.org/2000/svg">
<path fill-rule="evenodd" clip-rule="evenodd" d="M0.5 31.5C0.5 48.6208 14.3792 62.5 31.5 62.5C48.6208 62.5 62.5 48.6208 62.5 31.5C62.5 14.3792 48.6208 0.5 31.5 0.5C14.3792 0.5 0.5 14.3792 0.5 31.5ZM50.9551 30.3136C50.9511 40.4748 42.685 48.7428 32.5217 48.747H32.5141C29.4289 48.7459 26.3975 47.9719 23.7051 46.5033L13.9332 49.0666L16.5483 39.5146C14.9352 36.719 14.0864 33.5479 14.0878 30.299C14.0918 20.1355 22.3611 11.8667 32.5215 11.8667C37.4527 11.8688 42.081 13.7885 45.5612 17.2728C49.0415 20.757 50.9571 25.3882 50.9551 30.3136Z" fill="#2B2A29"/>
<path fill-rule="evenodd" clip-rule="evenodd" d="M18.3592 44.6873L24.158 43.1662L24.7175 43.4982C27.0698 44.8942 29.7663 45.6328 32.5156 45.6339H32.5218C40.9664 45.6339 47.8395 38.7607 47.8429 30.3126C47.8445 26.2187 46.2523 22.3693 43.3597 19.4733C40.467 16.5773 36.6201 14.9816 32.5278 14.9802C24.0767 14.9802 17.2035 21.8527 17.2002 30.3001C17.199 33.1952 18.009 36.0145 19.5427 38.4539L19.907 39.0336L18.3592 44.6873ZM41.1777 34.2823C41.499 34.4376 41.7159 34.5424 41.8085 34.697C41.9237 34.8891 41.9237 35.8113 41.54 36.8873C41.1561 37.9632 39.316 38.9451 38.431 39.0773C37.6375 39.196 36.6333 39.2454 35.53 38.8948C34.861 38.6826 34.0031 38.3992 32.9042 37.9246C28.5863 36.0601 25.6682 31.8751 25.1167 31.0841C25.0781 31.0287 25.051 30.9899 25.036 30.9698L25.0323 30.9648C24.7885 30.6396 23.1553 28.4605 23.1553 26.2051C23.1553 24.0835 24.1974 22.9715 24.6771 22.4596C24.71 22.4246 24.7402 22.3923 24.7673 22.3627C25.1895 21.9016 25.6885 21.7863 25.9955 21.7863C26.3026 21.7863 26.6099 21.7892 26.8783 21.8026C26.9114 21.8043 26.9459 21.8041 26.9815 21.8039C27.2499 21.8023 27.5845 21.8004 27.9146 22.5933C28.0416 22.8984 28.2274 23.3508 28.4234 23.828C28.8197 24.7929 29.2577 25.859 29.3347 26.0132C29.4499 26.2438 29.5266 26.5127 29.3731 26.8202C29.3501 26.8663 29.3287 26.9098 29.3084 26.9514C29.1931 27.1868 29.1082 27.36 28.9125 27.5885C28.8356 27.6784 28.756 27.7752 28.6765 27.8721C28.518 28.0651 28.3596 28.258 28.2216 28.3955C27.991 28.6252 27.751 28.8743 28.0197 29.3355C28.2884 29.7966 29.2127 31.3048 30.582 32.5262C32.0539 33.8391 33.3331 34.3939 33.9816 34.6752C34.1082 34.7301 34.2108 34.7746 34.286 34.8123C34.7464 35.0429 35.0151 35.0043 35.2838 34.697C35.5525 34.3896 36.4352 33.352 36.7422 32.891C37.0492 32.4301 37.3564 32.5068 37.7785 32.6605C38.2008 32.8143 40.4653 33.9285 40.9258 34.159C41.0158 34.204 41.0998 34.2446 41.1777 34.2823Z" fill="#2B2A29"/>
</svg>
