<svg width="63" height="63" viewBox="0 0 63 63" fill="none" xmlns="http://www.w3.org/2000/svg">
<path fill-rule="evenodd" clip-rule="evenodd" d="M31.5 0.5C14.3792 0.5 0.5 14.3792 0.5 31.5C0.5 48.6208 14.3792 62.5 31.5 62.5C48.6208 62.5 62.5 48.6208 62.5 31.5C62.5 14.3792 48.6208 0.5 31.5 0.5ZM44.419 20.8429C45.8418 21.2333 46.9623 22.3837 47.3426 23.8446C48.0336 26.4923 48.0336 32.0167 48.0336 32.0167C48.0336 32.0167 48.0336 37.5409 47.3426 40.1888C46.9623 41.6497 45.8418 42.8 44.419 43.1907C41.8405 43.9 31.5003 43.9 31.5003 43.9C31.5003 43.9 21.16 43.9 18.5813 43.1907C17.1585 42.8 16.038 41.6497 15.6577 40.1888C14.9669 37.5409 14.9669 32.0167 14.9669 32.0167C14.9669 32.0167 14.9669 26.4923 15.6577 23.8446C16.038 22.3837 17.1585 21.2333 18.5813 20.8429C21.16 20.1333 31.5003 20.1333 31.5003 20.1333C31.5003 20.1333 41.8405 20.1333 44.419 20.8429Z" fill="#2B2A29"/>
<path d="M28.3999 37.7V27.3667L36.6666 32.5336L28.3999 37.7Z" fill="#2B2A29"/>
</svg>
